#N canvas 1312 328 450 300 10;
#X declare -lib mrpeach;
#X obj 163 -10 import mrpeach;
#X obj 28 79 unpackOSC;
#X obj 19 121 route /xy;
#X obj 22 164 unpack i i;
#X floatatom 18 214 5 0 0 0 - - -;
#X floatatom 76 216 5 0 0 0 - - -;
#X obj 22 36 udpreceive 3107;
#X floatatom 164 106 5 0 0 0 - - -;
#X obj 176 177 packOSC;
#X msg 167 139 send /test \$1;
#X obj 200 217 udpsend;
#X msg 263 96 connect 10.100.36.213 12000;
#X connect 1 0 2 0;
#X connect 2 0 3 0;
#X connect 3 0 4 0;
#X connect 3 1 5 0;
#X connect 6 0 1 0;
#X connect 7 0 9 0;
#X connect 8 0 10 0;
#X connect 9 0 8 0;
#X connect 11 0 10 0;
